<svg width="62" height="6" viewBox="0 0 62 6" fill="none" xmlns="http://www.w3.org/2000/svg">
<path d="M0.875 5.22168L2.31055 3.3418L0.191406 2.72656L0.553711 1.60547L2.65918 2.41211L2.56348 0.0400391H3.75293L3.64355 2.45996L5.71484 1.65332L6.07715 2.79492L3.91699 3.41699L5.31836 5.25586L4.35449 5.95312L3.08984 3.9707L1.8457 5.89844L0.875 5.22168ZM7.08203 5.22168L8.51758 3.3418L6.39844 2.72656L6.76074 1.60547L8.86621 2.41211L8.77051 0.0400391H9.95996L9.85059 2.45996L11.9219 1.65332L12.2842 2.79492L10.124 3.41699L11.5254 5.25586L10.5615 5.95312L9.29688 3.9707L8.05273 5.89844L7.08203 5.22168ZM13.2891 5.22168L14.7246 3.3418L12.6055 2.72656L12.9678 1.60547L15.0732 2.41211L14.9775 0.0400391H16.167L16.0576 2.45996L18.1289 1.65332L18.4912 2.79492L16.3311 3.41699L17.7324 5.25586L16.7686 5.95312L15.5039 3.9707L14.2598 5.89844L13.2891 5.22168ZM19.4961 5.22168L20.9316 3.3418L18.8125 2.72656L19.1748 1.60547L21.2803 2.41211L21.1846 0.0400391H22.374L22.2646 2.45996L24.3359 1.65332L24.6982 2.79492L22.5381 3.41699L23.9395 5.25586L22.9756 5.95312L21.7109 3.9707L20.4668 5.89844L19.4961 5.22168ZM25.7031 5.22168L27.1387 3.3418L25.0195 2.72656L25.3818 1.60547L27.4873 2.41211L27.3916 0.0400391H28.5811L28.4717 2.45996L30.543 1.65332L30.9053 2.79492L28.7451 3.41699L30.1465 5.25586L29.1826 5.95312L27.918 3.9707L26.6738 5.89844L25.7031 5.22168ZM31.9102 5.22168L33.3457 3.3418L31.2266 2.72656L31.5889 1.60547L33.6943 2.41211L33.5986 0.0400391H34.7881L34.6787 2.45996L36.75 1.65332L37.1123 2.79492L34.9521 3.41699L36.3535 5.25586L35.3896 5.95312L34.125 3.9707L32.8809 5.89844L31.9102 5.22168ZM38.1172 5.22168L39.5527 3.3418L37.4336 2.72656L37.7959 1.60547L39.9014 2.41211L39.8057 0.0400391H40.9951L40.8857 2.45996L42.957 1.65332L43.3193 2.79492L41.1592 3.41699L42.5605 5.25586L41.5967 5.95312L40.332 3.9707L39.0879 5.89844L38.1172 5.22168ZM44.3242 5.22168L45.7598 3.3418L43.6406 2.72656L44.0029 1.60547L46.1084 2.41211L46.0127 0.0400391H47.2021L47.0928 2.45996L49.1641 1.65332L49.5264 2.79492L47.3662 3.41699L48.7676 5.25586L47.8037 5.95312L46.5391 3.9707L45.2949 5.89844L44.3242 5.22168ZM50.5312 5.22168L51.9668 3.3418L49.8477 2.72656L50.21 1.60547L52.3154 2.41211L52.2197 0.0400391H53.4092L53.2998 2.45996L55.3711 1.65332L55.7334 2.79492L53.5732 3.41699L54.9746 5.25586L54.0107 5.95312L52.7461 3.9707L51.502 5.89844L50.5312 5.22168ZM56.7383 5.22168L58.1738 3.3418L56.0547 2.72656L56.417 1.60547L58.5225 2.41211L58.4268 0.0400391H59.6162L59.5068 2.45996L61.5781 1.65332L61.9404 2.79492L59.7803 3.41699L61.1816 5.25586L60.2178 5.95312L58.9531 3.9707L57.709 5.89844L56.7383 5.22168Z" fill="#231F20"/>
</svg>
