<svg width="18" height="16" viewBox="0 0 18 16" fill="none" xmlns="http://www.w3.org/2000/svg">
<path d="M12.6364 14V12.6667C12.6364 11.1939 11.3339 10 9.72727 10H3.90909C2.30244 10 1 11.1939 1 12.6667V14" stroke="#ABA0A3" stroke-linecap="round" stroke-linejoin="round"/>
<path d="M3.90918 4.66667C3.90918 3.19391 5.21162 2 6.81827 2C8.42492 2 9.72736 3.19391 9.72736 4.66667C9.72736 6.13943 8.42492 7.33333 6.81827 7.33333C5.21162 7.33333 3.90918 6.13943 3.90918 4.66667Z" stroke="#ABA0A3" stroke-linecap="round" stroke-linejoin="round"/>
<path d="M17.0002 13.9993V12.6659C16.9992 11.4507 16.102 10.3898 14.8184 10.0859" stroke="#ABA0A3" stroke-linecap="round" stroke-linejoin="round"/>
<path d="M11.9092 2.08594C13.1964 2.38805 14.0967 3.45127 14.0967 4.66927C14.0967 5.88728 13.1964 6.95049 11.9092 7.2526" stroke="#ABA0A3" stroke-linecap="round" stroke-linejoin="round"/>
</svg>
