<svg width="18" height="18" viewBox="0 0 18 18" fill="none" xmlns="http://www.w3.org/2000/svg">
<path d="M15.3333 16.6667V12" stroke="#ABA0A3" stroke-linecap="round" stroke-linejoin="round"/>
<path d="M16.6667 15.334L15.3333 16.6673L14 15.334" stroke="#ABA0A3" stroke-linecap="round" stroke-linejoin="round"/>
<path d="M11.3333 12V16.6667" stroke="#ABA0A3" stroke-linecap="round" stroke-linejoin="round"/>
<path d="M12.6667 13.3333L11.3333 12L10 13.3333" stroke="#ABA0A3" stroke-linecap="round" stroke-linejoin="round"/>
<path d="M1.33325 11.334C1.33325 10.2731 1.75468 9.2557 2.50482 8.50556C3.25497 7.75541 4.27239 7.33398 5.33325 7.33398C6.39412 7.33398 7.41153 7.75541 8.16168 8.50556C8.91182 9.2557 9.33325 10.2731 9.33325 11.334H1.33325Z" stroke="#ABA0A3" stroke-linecap="round" stroke-linejoin="round"/>
<path d="M5.33325 6.33398C6.71396 6.33398 7.83325 5.2147 7.83325 3.83398C7.83325 2.45327 6.71396 1.33398 5.33325 1.33398C3.95254 1.33398 2.83325 2.45327 2.83325 3.83398C2.83325 5.2147 3.95254 6.33398 5.33325 6.33398Z" stroke="#ABA0A3" stroke-linecap="round" stroke-linejoin="round"/>
<path d="M11.6667 6.33398C13.0475 6.33398 14.1667 5.2147 14.1667 3.83398C14.1667 2.45327 13.0475 1.33398 11.6667 1.33398C10.286 1.33398 9.16675 2.45327 9.16675 3.83398C9.16675 5.2147 10.286 6.33398 11.6667 6.33398Z" stroke="#ABA0A3" stroke-linecap="round" stroke-linejoin="round"/>
<path d="M13.9801 8.06918C13.3553 7.62614 12.6165 7.37177 11.8514 7.33632C11.0863 7.30087 10.3271 7.48581 9.66406 7.86918" stroke="#ABA0A3" stroke-linecap="round" stroke-linejoin="round"/>
</svg>
