<svg width="16" height="16" viewBox="0 0 16 16" fill="none" xmlns="http://www.w3.org/2000/svg">
<path d="M6.09082 7.49929C6.09082 6.52024 6.94555 5.72656 7.99991 5.72656C9.05427 5.72656 9.909 6.52024 9.909 7.49929C9.909 8.47834 9.05427 9.27202 7.99991 9.27202C6.94555 9.27202 6.09082 8.47834 6.09082 7.49929Z" stroke="#ABA0A3" stroke-linecap="round" stroke-linejoin="round"/>
<path d="M12.7091 9.27273C12.5358 9.63737 12.6189 10.0633 12.9191 10.3482L12.9573 10.3836C13.1963 10.6053 13.3305 10.9061 13.3305 11.2198C13.3305 11.5334 13.1963 11.8342 12.9573 12.0559C12.7185 12.2778 12.3946 12.4025 12.0568 12.4025C11.719 12.4025 11.3951 12.2778 11.1564 12.0559L11.1182 12.0205C10.8113 11.7417 10.3527 11.6645 9.96 11.8255C9.57534 11.9785 9.32531 12.3291 9.32364 12.7177V12.8182C9.32364 13.4709 8.75382 14 8.05091 14C7.348 14 6.77818 13.4709 6.77818 12.8182V12.765C6.7681 12.3648 6.49555 12.0109 6.09091 11.8727C5.69822 11.7118 5.23957 11.789 4.93273 12.0677L4.89455 12.1032C4.65582 12.3251 4.33188 12.4498 3.99409 12.4498C3.6563 12.4498 3.33236 12.3251 3.09364 12.1032C2.85465 11.8815 2.72036 11.5807 2.72036 11.267C2.72036 10.9534 2.85465 10.6526 3.09364 10.4309L3.13182 10.3955C3.43197 10.1105 3.51513 9.68464 3.34182 9.32C3.17696 8.96281 2.79941 8.73064 2.38091 8.72909H2.27273C1.56982 8.72909 1 8.19997 1 7.54727C1 6.89457 1.56982 6.36545 2.27273 6.36545H2.33C2.76103 6.35609 3.14209 6.10301 3.29091 5.72727C3.46422 5.36263 3.38106 4.93675 3.08091 4.65182L3.04273 4.61636C2.80374 4.39469 2.66945 4.09389 2.66945 3.78023C2.66945 3.46656 2.80374 3.16576 3.04273 2.94409C3.28145 2.72217 3.60539 2.59748 3.94318 2.59748C4.28098 2.59748 4.60491 2.72217 4.84364 2.94409L4.88182 2.97955C5.18866 3.25826 5.64731 3.33548 6.04 3.17455H6.09091C6.47557 3.02146 6.7256 2.67088 6.72727 2.28227V2.18182C6.72727 1.52912 7.29709 1 8 1C8.70291 1 9.27273 1.52912 9.27273 2.18182V2.235C9.2744 2.62361 9.52443 2.97419 9.90909 3.12727C10.3018 3.2882 10.7604 3.21098 11.0673 2.93227L11.1055 2.89682C11.3442 2.6749 11.6681 2.55021 12.0059 2.55021C12.3437 2.55021 12.6676 2.6749 12.9064 2.89682C13.1454 3.11849 13.2796 3.41929 13.2796 3.73295C13.2796 4.04662 13.1454 4.34742 12.9064 4.56909L12.8682 4.60455C12.568 4.88947 12.4849 5.31536 12.6582 5.68V5.72727C12.823 6.08446 13.2006 6.31663 13.6191 6.31818H13.7273C14.4302 6.31818 15 6.8473 15 7.5C15 8.1527 14.4302 8.68182 13.7273 8.68182H13.67C13.2515 8.68337 12.874 8.91554 12.7091 9.27273Z" stroke="#ABA0A3" stroke-linecap="round" stroke-linejoin="round"/>
</svg>
