<svg width="16" height="16" viewBox="0 0 16 16" fill="none" xmlns="http://www.w3.org/2000/svg">
<g clip-path="url(#clip0_5654_33010)">
<path d="M9.3457 2.73242L6.72237 6.23242C6.66415 6.31004 6.58994 6.37425 6.50475 6.42069C6.41957 6.46714 6.3254 6.49474 6.22862 6.50163C6.13184 6.50852 6.0347 6.49454 5.9438 6.46063C5.85289 6.42672 5.77033 6.37368 5.7017 6.30509L4.3457 4.94909" stroke="#5F5457" stroke-width="1.5" stroke-linecap="round" stroke-linejoin="round"/>
<path d="M4.25 15.2285C4.94036 15.2285 5.5 14.6689 5.5 13.9785C5.5 13.2882 4.94036 12.7285 4.25 12.7285C3.55964 12.7285 3 13.2882 3 13.9785C3 14.6689 3.55964 15.2285 4.25 15.2285Z" stroke="#5F5457" stroke-width="1.5" stroke-linecap="round" stroke-linejoin="round"/>
<path d="M9.25 15.2285C9.94036 15.2285 10.5 14.6689 10.5 13.9785C10.5 13.2882 9.94036 12.7285 9.25 12.7285C8.55964 12.7285 8 13.2882 8 13.9785C8 14.6689 8.55964 15.2285 9.25 15.2285Z" stroke="#5F5457" stroke-width="1.5" stroke-linecap="round" stroke-linejoin="round"/>
<path d="M0.5 4.72948L2.05267 9.98748C2.10952 10.2004 2.23511 10.3886 2.40992 10.5227C2.58473 10.6569 2.79896 10.7296 3.01933 10.7295H10.2313C10.452 10.73 10.6667 10.6576 10.842 10.5233C11.0172 10.3891 11.1431 10.2007 11.2 9.98748L13.3587 1.88482C13.4438 1.56545 13.632 1.28314 13.8941 1.0818C14.1562 0.880459 14.4775 0.771366 14.808 0.771484H15.5" stroke="#5F5457" stroke-width="1.5" stroke-linecap="round" stroke-linejoin="round"/>
</g>
<defs>
<clipPath id="clip0_5654_33010">
<rect width="16" height="16" fill="white"/>
</clipPath>
</defs>
</svg>
